<?xml version="1.0" standalone="no"?>
<!DOCTYPE svg PUBLIC "-//W3C//DTD SVG 20010904//EN"
 "http://www.w3.org/TR/2001/REC-SVG-20010904/DTD/svg10.dtd">
<svg version="1.0" xmlns="http://www.w3.org/2000/svg"
 width="757.000000pt" height="319.000000pt" viewBox="0 0 757.000000 319.000000"
 preserveAspectRatio="xMidYMid meet">

<g transform="translate(0.000000,319.000000) scale(0.100000,-0.100000)"
fill="#000000" stroke="none">
<path d="M1065 3180 c-444 -70 -804 -362 -976 -789 -155 -387 -104 -789 139
-1092 202 -253 529 -412 997 -486 80 -13 216 -17 670 -20 314 -3 675 -2 803 2
l232 7 0 133 c0 73 -3 154 -7 180 l-6 48 -150 -7 c-217 -11 -1127 -8 -1292 3
-425 30 -753 169 -931 394 -103 132 -147 262 -146 432 2 370 270 703 654 816
61 18 107 22 273 26 110 3 1397 -5 2860 -16 1463 -12 2818 -21 3011 -21 l351
0 7 128 c4 70 9 154 13 188 l5 61 -2613 7 c-1438 3 -2888 8 -3224 11 -356 2
-635 0 -670 -5z"/>
<path d="M4110 2520 c-338 -41 -530 -391 -385 -698 90 -190 305 -304 513 -272
120 19 258 101 322 191 l19 26 -100 67 -100 67 -26 -31 c-14 -17 -48 -42 -76
-57 -43 -21 -61 -24 -122 -21 -59 3 -81 9 -121 33 -117 73 -150 224 -76 345
78 127 267 148 383 43 l38 -34 95 63 c53 35 96 67 96 73 0 23 -124 128 -191
160 -64 30 -90 37 -189 49 -14 1 -50 0 -80 -4z"/>
<path d="M5005 2518 c-150 -15 -310 -131 -376 -273 -105 -223 -27 -491 180
-624 219 -141 525 -77 669 139 144 215 97 508 -105 662 -105 79 -225 111 -368
96z m171 -257 c96 -44 149 -135 142 -245 -8 -129 -98 -217 -228 -224 -38 -2
-84 1 -103 7 -47 16 -113 75 -140 125 -30 58 -30 164 1 223 25 48 85 102 133
119 52 19 148 16 195 -5z"/>
<path d="M870 2395 l0 -115 115 0 115 0 0 -360 0 -360 120 0 120 0 0 360 0
360 110 0 110 0 0 115 0 115 -345 0 -345 0 0 -115z"/>
<path d="M1680 2035 l0 -475 120 0 120 0 0 180 0 180 185 0 185 0 0 -180 0
-180 120 0 120 0 0 475 0 475 -120 0 -120 0 0 -180 0 -180 -185 0 -185 0 0
180 0 180 -120 0 -120 0 0 -475z"/>
<path d="M2670 2035 l0 -475 300 0 300 0 0 115 0 115 -180 0 -180 0 0 75 0 75
165 0 165 0 0 100 0 100 -165 0 -165 0 0 70 0 70 175 0 175 0 0 115 0 115
-295 0 -295 0 0 -475z"/>
<path d="M5660 2035 l0 -475 193 0 c275 0 372 27 485 134 64 60 91 100 119
176 66 175 18 379 -118 504 -117 108 -216 136 -491 136 l-188 0 0 -475z m453
205 c169 -80 170 -329 2 -410 -32 -15 -72 -24 -131 -28 l-84 -5 0 238 0 238
83 -5 c55 -4 97 -13 130 -28z"/>
<path d="M6580 2035 l0 -475 305 0 305 0 0 115 0 115 -185 0 -185 0 0 75 0 75
165 0 165 0 0 100 0 100 -165 0 -165 0 0 70 0 70 180 0 181 0 -3 113 -3 112
-297 3 -298 2 0 -475z"/>
<path d="M4327 1479 c-228 -54 -389 -297 -348 -527 54 -305 372 -471 656 -343
117 53 216 171 250 295 13 47 16 89 13 153 -3 77 -9 100 -41 167 -60 127 -167
215 -302 251 -64 16 -168 18 -228 4z m201 -235 c20 -8 52 -29 70 -47 176 -169
17 -453 -221 -396 -65 15 -150 94 -166 154 -33 120 24 243 134 291 41 18 138
17 183 -2z"/>
<path d="M6041 1459 c-72 -36 -113 -85 -136 -162 -19 -64 -19 -100 1 -166 28
-94 81 -138 257 -211 92 -38 116 -65 97 -109 -15 -36 -58 -55 -108 -48 -41 7
-82 46 -82 78 0 22 4 22 -162 3 -53 -6 -56 -12 -37 -79 39 -138 197 -223 366
-196 161 26 245 121 247 282 1 68 -2 81 -29 125 -38 61 -98 102 -220 149 -102
40 -138 71 -133 113 2 14 15 34 30 45 35 26 87 14 105 -24 l13 -26 87 13 c49
8 91 14 96 14 14 0 7 44 -14 87 -43 89 -141 143 -259 143 -44 0 -71 -7 -119
-31z"/>
<path d="M3080 1030 l0 -450 110 0 110 0 0 170 0 170 175 0 175 0 0 -170 0
-170 115 0 115 0 0 450 0 451 -112 -3 -113 -3 -3 -167 -2 -168 -175 0 -175 0
0 170 0 170 -110 0 -110 0 0 -450z"/>
<path d="M4982 1158 c4 -360 6 -370 78 -466 71 -94 233 -146 382 -122 132 20
215 72 265 167 46 86 53 146 53 460 l0 283 -115 0 -115 0 0 -282 c0 -259 -2
-287 -20 -326 -49 -108 -231 -108 -280 0 -18 39 -20 67 -20 326 l0 282 -116 0
-115 0 3 -322z"/>
<path d="M6590 1030 l0 -450 285 0 285 0 0 110 0 110 -170 0 -170 0 0 70 0 70
155 0 155 0 0 95 0 95 -155 0 -155 0 0 65 0 65 165 0 165 0 0 110 0 110 -280
0 -280 0 0 -450z"/>
<path d="M2600 332 l0 -48 -39 4 c-48 5 -76 -10 -97 -50 -21 -40 -11 -92 23
-124 22 -20 34 -23 104 -22 l79 0 0 144 0 144 -35 0 -35 0 0 -48z m-6 -124
c15 -24 -3 -52 -37 -56 -33 -4 -53 28 -37 59 14 25 58 23 74 -3z"/>
<path d="M4380 235 l0 -145 30 0 30 0 0 145 0 145 -30 0 -30 0 0 -145z"/>
<path d="M7300 310 c0 -13 -7 -20 -20 -20 -15 0 -20 -7 -20 -26 0 -17 6 -28
20 -31 17 -5 20 -14 20 -59 0 -43 4 -56 22 -68 27 -19 68 -21 91 -3 16 11 16
14 2 34 -10 14 -22 19 -35 16 -18 -5 -20 0 -20 36 0 37 2 41 25 41 21 0 25 5
25 30 0 25 -4 30 -25 30 -18 0 -25 5 -25 20 0 16 -7 20 -30 20 -23 0 -30 -4
-30 -20z"/>
<path d="M2981 269 c-96 -89 11 -225 129 -164 56 29 26 60 -44 48 -20 -3 -36
-1 -40 6 -5 8 12 11 57 11 35 0 66 3 69 6 12 11 -12 69 -37 92 -35 30 -102 30
-134 1z m94 -49 c4 -6 -7 -10 -24 -10 -17 0 -31 5 -31 10 0 6 11 10 24 10 14
0 28 -4 31 -10z"/>
<path d="M3410 286 c0 -2 18 -46 39 -97 36 -87 41 -94 69 -97 35 -4 35 -3 86
118 l34 80 -34 0 c-33 0 -37 -4 -56 -50 -11 -27 -24 -50 -27 -50 -4 0 -15 23
-25 50 -17 47 -20 50 -52 50 -19 0 -34 -2 -34 -4z"/>
<path d="M3919 261 c-48 -49 -38 -125 21 -156 42 -22 92 -19 125 7 26 20 26
22 10 34 -11 9 -33 11 -60 7 -26 -3 -45 -1 -49 6 -5 8 14 11 63 11 65 0 71 2
71 20 0 29 -27 78 -49 90 -11 5 -38 10 -61 10 -33 0 -48 -6 -71 -29z m106 -41
c4 -6 -8 -10 -30 -10 -22 0 -34 4 -30 10 3 6 17 10 30 10 13 0 27 -4 30 -10z"/>
<path d="M4749 261 c-23 -23 -29 -38 -29 -71 0 -112 152 -140 195 -36 18 42 8
81 -27 111 -43 36 -100 34 -139 -4z m109 -59 c4 -28 -14 -52 -38 -52 -26 0
-43 26 -36 55 6 22 11 26 39 23 25 -2 33 -8 35 -26z"/>
<path d="M5200 144 l0 -144 30 0 c29 0 30 1 30 49 l0 49 44 -5 c80 -9 131 55
106 132 -17 52 -42 64 -132 63 l-78 0 0 -144z m148 49 c3 -28 -1 -33 -23 -39
-29 -7 -55 10 -55 35 0 25 22 42 50 39 20 -2 26 -9 28 -35z"/>
<path d="M5692 192 l3 -97 30 0 c30 0 30 0 33 62 2 49 7 65 22 73 32 17 50
-12 50 -81 0 -59 0 -59 30 -59 30 0 30 0 30 59 0 69 18 98 50 81 15 -8 20 -24
22 -73 3 -62 3 -62 33 -62 l30 0 -1 72 c0 62 -4 76 -24 98 -25 27 -75 34 -111
14 -14 -7 -24 -7 -32 0 -7 5 -48 10 -90 10 l-78 0 3 -97z"/>
<path d="M6341 269 c-96 -89 11 -225 129 -164 56 29 26 60 -44 48 -20 -3 -36
-1 -40 6 -5 8 13 11 58 11 l66 0 0 31 c0 48 -47 89 -102 89 -31 0 -51 -6 -67
-21z m94 -49 c4 -6 -7 -10 -24 -10 -17 0 -31 5 -31 10 0 6 11 10 24 10 14 0
28 -4 31 -10z"/>
<path d="M6790 189 l0 -99 30 0 c30 0 30 1 30 55 0 66 26 103 60 85 17 -9 20
-21 20 -75 l0 -65 30 0 30 0 0 74 c0 59 -4 78 -20 99 -19 24 -26 26 -100 25
l-80 0 0 -99z"/>
</g>
</svg>
